HIERARCHY
ROOT Hips
{
	OFFSET -410.937256 -573.586853 88.927803
	CHANNELS 6 Xposition Yposition Zposition Zrotation Yrotation Xrotation
	JOINT Spine
	{
		OFFSET 0.000000 2.080078 8.814247
		CHANNELS 6 Xposition Yposition Zposition Zrotation Yrotation Xrotation
		JOINT Spine1
		{
			OFFSET 0.000000 0.000000 8.844139
			CHANNELS 6 Xposition Yposition Zposition Zrotation Yrotation Xrotation
			JOINT Spine2
			{
				OFFSET 0.000000 0.000000 11.682266
				CHANNELS 6 Xposition Yposition Zposition Zrotation Yrotation Xrotation
				JOINT Spine3
				{
					OFFSET 0.000000 0.000000 11.746696
					CHANNELS 6 Xposition Yposition Zposition Zrotation Yrotation Xrotation
					JOINT Neck
					{
						OFFSET 0.000000 0.000000 17.658264
						CHANNELS 6 Xposition Yposition Zposition Zrotation Yrotation Xrotation
						JOINT Neck1
						{
							OFFSET 0.000000 0.000000 5.101517
							CHANNELS 6 Xposition Yposition Zposition Zrotation Yrotation Xrotation
							JOINT Head
							{
								OFFSET 0.000000 0.000000 5.101517
								CHANNELS 6 Xposition Yposition Zposition Zrotation Yrotation Xrotation
								JOINT HeadEnd
								{
									OFFSET 0.000000 0.000000 11.655090
									CHANNELS 6 Xposition Yposition Zposition Zrotation Yrotation Xrotation
									End Site
									{
										OFFSET 0.000000 0.000000 0.100006
									}
								}
							}
						}
					}
					JOINT RightShoulder
					{
						OFFSET -2.625397 0.000000 11.175217
						CHANNELS 6 Xposition Yposition Zposition Zrotation Yrotation Xrotation
						JOINT RightArm
						{
							OFFSET 0.000000 0.000000 10.434708
							CHANNELS 6 Xposition Yposition Zposition Zrotation Yrotation Xrotation
							JOINT RightForeArm
							{
								OFFSET 0.000000 0.000000 29.628418
								CHANNELS 6 Xposition Yposition Zposition Zrotation Yrotation Xrotation
								JOINT RightHand
								{
									OFFSET 0.000000 0.000000 22.857605
									CHANNELS 6 Xposition Yposition Zposition Zrotation Yrotation Xrotation
									JOINT RightHandThumb1
									{
										OFFSET -2.867310 -2.944275 3.959564
										CHANNELS 6 Xposition Yposition Zposition Zrotation Yrotation Xrotation
										JOINT RightHandThumb2
										{
											OFFSET 0.000000 0.000000 3.350403
											CHANNELS 6 Xposition Yposition Zposition Zrotation Yrotation Xrotation
											JOINT RightHandThumb3
											{
												OFFSET 0.000000 0.000000 3.756516
												CHANNELS 6 Xposition Yposition Zposition Zrotation Yrotation Xrotation
												JOINT RightHandThumb4
												{
													OFFSET 0.000000 0.000000 3.147339
													CHANNELS 6 Xposition Yposition Zposition Zrotation Yrotation Xrotation
													End Site
													{
														OFFSET 0.000000 0.000000 0.100006
													}
												}
											}
										}
									}
									JOINT RightHandIndex1
									{
										OFFSET -0.086761 -2.345276 10.030899
										CHANNELS 6 Xposition Yposition Zposition Zrotation Yrotation Xrotation
										JOINT RightHandIndex2
										{
											OFFSET 0.000000 0.000000 4.061096
											CHANNELS 6 Xposition Yposition Zposition Zrotation Yrotation Xrotation
											JOINT RightHandIndex3
											{
												OFFSET 0.000000 0.000000 3.248871
												CHANNELS 6 Xposition Yposition Zposition Zrotation Yrotation Xrotation
												JOINT RightHandIndex4
												{
													OFFSET 0.000000 0.000000 2.639709
													CHANNELS 6 Xposition Yposition Zposition Zrotation Yrotation Xrotation
													End Site
													{
														OFFSET 0.000000 0.000000 0.100006
													}
												}
											}
										}
									}
									JOINT RightHandMiddle1
									{
										OFFSET 0.104095 -0.006775 9.502945
										CHANNELS 6 Xposition Yposition Zposition Zrotation Yrotation Xrotation
										JOINT RightHandMiddle2
										{
											OFFSET 0.000000 0.000000 4.568726
											CHANNELS 6 Xposition Yposition Zposition Zrotation Yrotation Xrotation
											JOINT RightHandMiddle3
											{
												OFFSET 0.000000 0.000000 3.654984
												CHANNELS 6 Xposition Yposition Zposition Zrotation Yrotation Xrotation
												JOINT RightHandMiddle4
												{
													OFFSET 0.000000 0.000000 2.741241
													CHANNELS 6 Xposition Yposition Zposition Zrotation Yrotation Xrotation
													End Site
													{
														OFFSET 0.000000 0.000000 0.100006
													}
												}
											}
										}
									}
									JOINT RightHandRing1
									{
										OFFSET 0.086761 2.267456 8.921707
										CHANNELS 6 Xposition Yposition Zposition Zrotation Yrotation Xrotation
										JOINT RightHandRing2
										{
											OFFSET 0.000000 0.000000 4.061096
											CHANNELS 6 Xposition Yposition Zposition Zrotation Yrotation Xrotation
											JOINT RightHandRing3
											{
												OFFSET 0.000000 0.000000 3.654984
												CHANNELS 6 Xposition Yposition Zposition Zrotation Yrotation Xrotation
												JOINT RightHandRing4
												{
													OFFSET 0.000000 0.000000 2.741241
													CHANNELS 6 Xposition Yposition Zposition Zrotation Yrotation Xrotation
													End Site
													{
														OFFSET 0.000000 0.000000 0.100006
													}
												}
											}
										}
									}
									JOINT RightHandPinky1
									{
										OFFSET -0.173492 4.467224 7.976990
										CHANNELS 6 Xposition Yposition Zposition Zrotation Yrotation Xrotation
										JOINT RightHandPinky2
										{
											OFFSET 0.000000 0.000000 3.350403
											CHANNELS 6 Xposition Yposition Zposition Zrotation Yrotation Xrotation
											JOINT RightHandPinky3
											{
												OFFSET 0.000000 0.000000 2.842758
												CHANNELS 6 Xposition Yposition Zposition Zrotation Yrotation Xrotation
												JOINT RightHandPinky4
												{
													OFFSET 0.000000 0.000000 2.639709
													CHANNELS 6 Xposition Yposition Zposition Zrotation Yrotation Xrotation
													End Site
													{
														OFFSET 0.000000 0.000000 0.100006
													}
												}
											}
										}
									}
									JOINT RightForeArmEnd
									{
										OFFSET 0.000000 0.000000 0.000000
										CHANNELS 6 Xposition Yposition Zposition Zrotation Yrotation Xrotation
										End Site
										{
											OFFSET 0.000000 0.000000 0.100006
										}
									}
								}
								JOINT RightArmEnd
								{
									OFFSET 0.000000 0.000000 0.000000
									CHANNELS 6 Xposition Yposition Zposition Zrotation Yrotation Xrotation
									End Site
									{
										OFFSET 0.000000 0.000000 0.100006
									}
								}
							}
						}
					}
					JOINT LeftShoulder
					{
						OFFSET 2.625397 0.000000 11.175217
						CHANNELS 6 Xposition Yposition Zposition Zrotation Yrotation Xrotation
						JOINT LeftArm
						{
							OFFSET 0.000000 0.000000 10.813629
							CHANNELS 6 Xposition Yposition Zposition Zrotation Yrotation Xrotation
							JOINT LeftForeArm
							{
								OFFSET 0.000000 0.000000 28.724777
								CHANNELS 6 Xposition Yposition Zposition Zrotation Yrotation Xrotation
								JOINT LeftHand
								{
									OFFSET 0.644379 0.328857 25.716171
									CHANNELS 6 Xposition Yposition Zposition Zrotation Yrotation Xrotation
									JOINT LeftHandThumb1
									{
										OFFSET 2.867310 -2.944275 3.959564
										CHANNELS 6 Xposition Yposition Zposition Zrotation Yrotation Xrotation
										JOINT LeftHandThumb2
										{
											OFFSET 0.000000 0.000000 3.350403
											CHANNELS 6 Xposition Yposition Zposition Zrotation Yrotation Xrotation
											JOINT LeftHandThumb3
											{
												OFFSET 0.000000 0.000000 3.756516
												CHANNELS 6 Xposition Yposition Zposition Zrotation Yrotation Xrotation
												JOINT LeftHandThumb4
												{
													OFFSET 0.000000 0.000000 3.100006
													CHANNELS 6 Xposition Yposition Zposition Zrotation Yrotation Xrotation
													End Site
													{
														OFFSET 0.000000 0.000000 0.100006
													}
												}
											}
										}
									}
									JOINT LeftHandIndex1
									{
										OFFSET 0.086761 -2.345276 10.030899
										CHANNELS 6 Xposition Yposition Zposition Zrotation Yrotation Xrotation
										JOINT LeftHandIndex2
										{
											OFFSET 0.000000 0.000000 4.061096
											CHANNELS 6 Xposition Yposition Zposition Zrotation Yrotation Xrotation
											JOINT LeftHandIndex3
											{
												OFFSET 0.000000 0.000000 3.248871
												CHANNELS 6 Xposition Yposition Zposition Zrotation Yrotation Xrotation
												JOINT LeftHandIndex4
												{
													OFFSET 0.000000 0.000000 2.639709
													CHANNELS 6 Xposition Yposition Zposition Zrotation Yrotation Xrotation
													End Site
													{
														OFFSET 0.000000 0.000000 0.100006
													}
												}
											}
										}
									}
									JOINT LeftHandMiddle1
									{
										OFFSET -0.104095 -0.006775 9.502945
										CHANNELS 6 Xposition Yposition Zposition Zrotation Yrotation Xrotation
										JOINT LeftHandMiddle2
										{
											OFFSET 0.000000 0.000000 4.568726
											CHANNELS 6 Xposition Yposition Zposition Zrotation Yrotation Xrotation
											JOINT LeftHandMiddle3
											{
												OFFSET 0.000000 0.000000 3.654984
												CHANNELS 6 Xposition Yposition Zposition Zrotation Yrotation Xrotation
												JOINT LeftHandMiddle4
												{
													OFFSET 0.000000 0.000000 2.741241
													CHANNELS 6 Xposition Yposition Zposition Zrotation Yrotation Xrotation
													End Site
													{
														OFFSET 0.000000 0.000000 0.100006
													}
												}
											}
										}
									}
									JOINT LeftHandRing1
									{
										OFFSET -0.086761 2.267456 8.921707
										CHANNELS 6 Xposition Yposition Zposition Zrotation Yrotation Xrotation
										JOINT LeftHandRing2
										{
											OFFSET 0.000000 0.000000 4.061096
											CHANNELS 6 Xposition Yposition Zposition Zrotation Yrotation Xrotation
											JOINT LeftHandRing3
											{
												OFFSET 0.000000 0.000000 3.654984
												CHANNELS 6 Xposition Yposition Zposition Zrotation Yrotation Xrotation
												JOINT LeftHandRing4
												{
													OFFSET 0.000000 0.000000 2.741241
													CHANNELS 6 Xposition Yposition Zposition Zrotation Yrotation Xrotation
													End Site
													{
														OFFSET 0.000000 0.000000 0.100006
													}
												}
											}
										}
									}
									JOINT LeftHandPinky1
									{
										OFFSET 0.173492 4.467224 7.976990
										CHANNELS 6 Xposition Yposition Zposition Zrotation Yrotation Xrotation
										JOINT LeftHandPinky2
										{
											OFFSET 0.000000 0.000000 3.350403
											CHANNELS 6 Xposition Yposition Zposition Zrotation Yrotation Xrotation
											JOINT LeftHandPinky3
											{
												OFFSET 0.000000 0.000000 2.842758
												CHANNELS 6 Xposition Yposition Zposition Zrotation Yrotation Xrotation
												JOINT LeftHandPinky4
												{
													OFFSET 0.000000 0.000000 2.639709
													CHANNELS 6 Xposition Yposition Zposition Zrotation Yrotation Xrotation
													End Site
													{
														OFFSET 0.000000 0.000000 0.100006
													}
												}
											}
										}
									}
									JOINT LeftForeArmEnd
									{
										OFFSET 0.000000 0.000000 0.000000
										CHANNELS 6 Xposition Yposition Zposition Zrotation Yrotation Xrotation
										End Site
										{
											OFFSET 0.000000 0.000000 0.100006
										}
									}
								}
								JOINT LeftArmEnd
								{
									OFFSET 0.000000 0.000000 0.000000
									CHANNELS 6 Xposition Yposition Zposition Zrotation Yrotation Xrotation
									End Site
									{
										OFFSET 0.000000 0.000000 0.100006
									}
								}
							}
						}
					}
				}
			}
		}
	}
	JOINT RightUpLeg
	{
		OFFSET -11.289948 0.000000 0.000000
		CHANNELS 6 Xposition Yposition Zposition Zrotation Yrotation Xrotation
		JOINT RightLeg
		{
			OFFSET 0.000000 0.000000 -38.200329
			CHANNELS 6 Xposition Yposition Zposition Zrotation Yrotation Xrotation
			JOINT RightFoot
			{
				OFFSET 0.000000 0.000000 -39.900856
				CHANNELS 6 Xposition Yposition Zposition Zrotation Yrotation Xrotation
				JOINT RightToeBase
				{
					OFFSET 0.000000 -15.261658 0.000002
					CHANNELS 6 Xposition Yposition Zposition Zrotation Yrotation Xrotation
					JOINT RightToeBaseEnd
					{
						OFFSET 0.000000 -7.370728 0.000000
						CHANNELS 6 Xposition Yposition Zposition Zrotation Yrotation Xrotation
						End Site
						{
							OFFSET 0.000000 0.000000 0.100000
						}
					}
				}
				JOINT RightLegEnd
				{
					OFFSET 0.000000 0.000000 0.000000
					CHANNELS 6 Xposition Yposition Zposition Zrotation Yrotation Xrotation
					End Site
					{
						OFFSET 0.000000 0.000000 0.100000
					}
				}
			}
			JOINT RightUpLegEnd
			{
				OFFSET 0.000000 0.000000 0.000000
				CHANNELS 6 Xposition Yposition Zposition Zrotation Yrotation Xrotation
				End Site
				{
					OFFSET 0.000000 0.000000 0.099998
				}
			}
		}
	}
	JOINT LeftUpLeg
	{
		OFFSET 11.315674 0.000000 0.000000
		CHANNELS 6 Xposition Yposition Zposition Zrotation Yrotation Xrotation
		JOINT LeftLeg
		{
			OFFSET 0.000000 0.000000 -38.200329
			CHANNELS 6 Xposition Yposition Zposition Zrotation Yrotation Xrotation
			JOINT LeftFoot
			{
				OFFSET 0.000000 0.000000 -39.900856
				CHANNELS 6 Xposition Yposition Zposition Zrotation Yrotation Xrotation
				JOINT LeftToeBase
				{
					OFFSET 0.000000 -15.261658 0.000002
					CHANNELS 6 Xposition Yposition Zposition Zrotation Yrotation Xrotation
					JOINT LeftToeBaseEnd
					{
						OFFSET 0.000000 -7.539978 0.000000
						CHANNELS 6 Xposition Yposition Zposition Zrotation Yrotation Xrotation
						End Site
						{
							OFFSET 0.000000 0.000000 0.100000
						}
					}
				}
				JOINT LeftLegEnd
				{
					OFFSET 0.000000 0.000000 0.000000
					CHANNELS 6 Xposition Yposition Zposition Zrotation Yrotation Xrotation
					End Site
					{
						OFFSET 0.000000 0.000000 0.100000
					}
				}
			}
			JOINT LeftUpLegEnd
			{
				OFFSET 0.000000 0.000000 0.000000
				CHANNELS 6 Xposition Yposition Zposition Zrotation Yrotation Xrotation
				End Site
				{
					OFFSET 0.000000 0.000000 0.099998
				}
			}
		}
	}
}
MOTION
Frames: 2
Frame Time: 0.016667
-1.112976 -13.134155 82.848801 -2.563339 -0.118497 -15.475636 0.000014 2.080108 8.814236 -0.556489 -3.588426 17.061661 0.000006 0.000004 8.844143 -0.577869 -0.925966 10.203840 -0.000016 0.000024 11.682261 -2.123706 -0.009050 12.600726 -0.000005 -0.000010 11.746686 -0.460601 0.532635 8.175836 -0.000002 -0.000021 17.658255 -0.606002 -4.274212 -1.786714 0.000009 0.000004 5.101532 1.032002 -1.100139 -6.571989 -0.000008 -0.000021 5.101548 -0.916379 1.352192 -9.638882 0.000004 -0.000005 11.655065 0.000001 0.000001 0.000000 -2.625381 -0.000019 11.175205 18.539293 -73.652751 0.972818 0.000023 0.000011 10.434717 -61.951373 -44.720056 76.850536 0.000006 -0.000015 29.628403 13.499445 0.255943 31.613541 0.000031 0.000126 22.857613 -11.121337 6.620794 -7.522842 -2.867367 -2.944351 3.959549 31.586702 -17.619211 50.974696 -0.000069 0.000015 3.350410 -13.456713 8.731307 -24.185223 -0.000042 0.000000 3.756531 -8.945649 6.680268 -16.547364 -0.000007 -0.000083 3.147362 0.000003 -0.000001 0.000000 -0.086746 -2.345333 10.030869 -11.865932 -15.864979 8.251548 -0.000010 0.000010 4.061102 0.326445 -11.902499 1.696827 -0.000009 -0.000029 3.248882 -0.173753 -11.902476 1.696848 -0.000019 0.000004 2.639735 0.000000 -0.000000 -0.000001 0.104080 -0.006809 9.502934 -6.117153 -13.791014 3.650761 -0.000039 -0.000087 4.568739 0.443520 -9.931771 0.527653 0.000012 -0.000047 3.655001 -0.054122 -9.931745 0.527237 -0.000004 -0.000076 2.741267 0.000001 0.000000 -0.000001 0.086735 2.267412 8.921719 2.731139 -10.327897 -0.527310 -0.000048 -0.000009 4.061099 -0.961570 -7.334946 -0.452320 -0.000038 -0.000002 3.654990 0.034433 -7.335201 -0.452674 -0.000033 0.000001 2.741248 -0.000000 0.000000 -0.000001 -0.173529 4.467197 7.976971 12.049234 -4.900596 -3.595383 -0.000034 -0.000046 3.350419 -1.974279 -3.895747 -0.758444 -0.000002 -0.000031 2.842779 0.029360 -3.895757 -0.758699 -0.000028 0.000021 2.639702 -0.000003 -0.000000 0.000000 0.000027 0.000000 -0.000021 0.000000 0.000002 0.000001 0.000012 0.000002 -0.000015 -0.000001 0.000000 0.000000 2.625374 -0.000019 11.175203 -16.686623 69.886687 -0.163755 0.000033 0.000017 10.813627 69.818569 53.941648 73.750846 0.000002 0.000008 28.724792 -4.431475 -0.390875 52.410965 0.644360 0.328819 25.716217 -5.086636 -13.741512 -21.520727 2.867275 -2.944305 3.959579 -31.623899 17.268284 51.506556 0.000000 0.000031 3.350399 12.679327 -8.429112 -22.889624 -0.000002 0.000011 3.756500 8.440236 -6.403169 -15.670546 -0.000004 0.000029 3.099991 -0.000003 0.000001 0.000001 0.086769 -2.345294 10.030941 -6.083665 15.513841 2.062464 -0.000005 -0.000006 4.061101 0.361319 10.576135 -1.504494 -0.000010 0.000027 3.248915 -0.138875 10.576308 -1.504586 -0.000015 0.000014 2.639730 -0.000002 -0.000000 0.000001 -0.104110 -0.006765 9.502925 -1.287772 12.925849 1.196986 -0.000000 0.000024 4.568742 0.461124 9.108132 -0.483040 0.000016 -0.000028 3.654969 -0.044921 9.108128 -0.481955 -0.000002 0.000008 2.741234 -0.000002 0.000001 0.000001 -0.086754 2.267462 8.921716 6.448542 10.589152 -0.756437 0.000032 -0.000024 4.061125 -0.968235 7.448436 0.458405 0.000011 -0.000012 3.655001 0.036959 7.448411 0.459075 0.000010 0.000015 2.741235 -0.000002 0.000000 -0.000001 0.173483 4.467220 7.976990 14.285452 7.684545 -2.955867 0.000011 0.000003 3.350425 -1.961508 4.760548 0.927522 -0.000004 0.000023 2.842776 0.038566 4.760553 0.927539 0.000007 0.000012 2.639733 -0.000002 -0.000000 0.000000 -0.000002 -0.000017 -0.000019 0.000001 0.000001 -0.000001 -0.000014 -0.000035 0.000003 -0.000003 0.000000 -0.000000 -11.289931 -0.000005 -0.000015 -10.491387 7.853746 -5.348130 0.000008 0.000092 -38.200321 -0.506273 0.474743 43.254601 0.000026 -0.000069 -39.900856 -7.959855 -4.371061 2.606489 0.000035 -15.261736 0.000025 2.205082 0.467558 -15.364135 -0.000011 -7.370675 -0.000001 0.000001 -0.000000 -0.000001 0.000010 0.000003 -0.000002 -0.000000 0.000000 0.000000 -0.000005 0.000070 -0.000006 -0.000001 0.000000 -0.000001 11.315667 -0.000038 -0.000004 -4.646357 -9.928031 -2.909886 0.000004 -0.000011 -38.200321 0.894738 -0.771195 40.691733 -0.000012 -0.000000 -39.900856 -0.187525 7.068956 4.014743 0.000033 -15.261674 0.000020 -2.137580 -0.358089 -20.300005 -0.000000 -7.539978 0.000001 -0.000000 -0.000000 -0.000000 0.000030 -0.000002 0.000000 0.000000 -0.000000 -0.000000 -0.000005 0.000062 -0.000005 -0.000000 0.000001 -0.000001 
-1.101288 -13.150513 82.844498 -2.610302 -0.109029 -15.482791 0.000012 2.080162 8.814247 -0.544626 -3.557828 17.029436 0.000000 -0.000012 8.844154 -0.573705 -0.905020 10.203773 -0.000002 0.000014 11.682294 -2.165693 -0.011090 12.642809 0.000013 0.000015 11.746673 -0.481575 0.532153 8.198332 -0.000011 0.000023 17.658258 -0.771132 -4.292628 -1.944333 0.000014 -0.000015 5.101530 0.882222 -1.096484 -6.686487 0.000010 0.000019 5.101545 -0.915904 1.297393 -9.581873 -0.000002 0.000003 11.655090 -0.000001 0.000000 -0.000001 -2.625381 0.000031 11.175220 18.535298 -73.687414 0.973261 -0.000008 0.000015 10.434732 -61.824967 -44.716723 76.692492 0.000006 0.000023 29.628407 13.679428 0.270243 31.875041 0.000036 0.000048 22.857601 -11.043750 6.275004 -7.242821 -2.867352 -2.944321 3.959534 31.586708 -17.619219 50.974689 -0.000053 0.000023 3.350414 -13.456714 8.731309 -24.185217 -0.000065 0.000008 3.756516 -8.945657 6.680263 -16.547375 -0.000038 -0.000062 3.147353 -0.000000 -0.000000 -0.000000 -0.086777 -2.345320 10.030914 -11.929948 -16.156334 7.861970 -0.000031 -0.000026 4.061092 0.325009 -12.064869 1.719945 -0.000001 -0.000024 3.248867 -0.175388 -12.065025 1.720026 -0.000038 -0.000002 2.639724 0.000000 -0.000001 0.000001 0.104103 -0.006843 9.502953 -6.161923 -14.024320 3.345238 -0.000038 -0.000061 4.568730 0.445123 -10.084091 0.535364 -0.000024 -0.000080 3.655030 -0.053304 -10.083811 0.534456 -0.000019 -0.000060 2.741267 0.000000 0.000001 -0.000002 0.086750 2.267409 8.921740 2.700264 -10.494485 -0.746227 -0.000011 0.000010 4.061104 -0.962526 -7.464812 -0.460158 -0.000014 0.000024 3.655016 0.034031 -7.464743 -0.459354 -0.000011 0.000017 2.741243 -0.000003 0.000000 -0.000002 -0.173540 4.467196 7.977024 12.027185 -5.001239 -3.733030 -0.000031 -0.000049 3.350428 -1.972347 -3.985487 -0.776085 0.000004 -0.000083 2.842779 0.030758 -3.986063 -0.776271 -0.000005 -0.000005 2.639709 0.000001 -0.000000 -0.000000 0.000010 0.000014 0.000002 -0.000002 0.000001 0.000001 0.000012 0.000017 -0.000002 -0.000002 0.000000 0.000002 2.625381 -0.000008 11.175226 -16.722050 69.777657 -0.163982 -0.000015 -0.000034 10.813623 69.871578 54.077818 73.755654 0.000005 -0.000004 28.724846 -4.591597 -0.392377 52.572905 0.644379 0.328823 25.716187 -4.952308 -13.642639 -21.215609 2.867294 -2.944336 3.959579 -31.623899 17.268287 51.506552 -0.000004 0.000000 3.350418 12.679336 -8.429113 -22.889637 -0.000010 -0.000027 3.756565 8.440234 -6.403167 -15.670551 -0.000009 -0.000011 3.100041 0.000001 0.000001 -0.000003 0.086777 -2.345264 10.030917 -6.085112 15.430360 1.507383 -0.000001 -0.000024 4.061139 0.362304 10.583528 -1.504674 0.000015 -0.000019 3.248905 -0.137897 10.583807 -1.504858 -0.000014 -0.000004 2.639696 0.000001 0.000001 -0.000001 -0.104087 -0.006768 9.502951 -1.275113 12.979120 0.816334 0.000010 -0.000017 4.568709 0.461303 9.162365 -0.482436 0.000011 -0.000006 3.654972 -0.044128 9.162383 -0.483751 0.000003 -0.000014 2.741252 0.000002 -0.000000 0.000000 -0.086758 2.267490 8.921760 6.502536 10.878547 -0.939369 0.000005 -0.000004 4.061094 -0.966870 7.643152 0.470508 0.000010 0.000076 3.654995 0.037120 7.642959 0.471242 0.000007 -0.000007 2.741238 0.000001 -0.000001 -0.000000 0.173494 4.467203 7.977016 14.382439 8.148717 -2.903900 -0.000002 0.000003 3.350403 -1.956010 5.084162 0.990897 -0.000010 -0.000023 2.842763 0.044612 5.084167 0.990980 -0.000014 0.000002 2.639697 -0.000000 0.000000 -0.000000 -0.000004 0.000003 0.000021 -0.000001 0.000001 0.000000 0.000002 -0.000007 -0.000024 0.000000 -0.000001 -0.000003 -11.289943 -0.000009 0.000000 -10.370356 7.825620 -5.325099 -0.000013 0.000050 -38.200333 -0.505546 0.473326 43.252665 0.000012 -0.000065 -39.900856 -8.023482 -4.434084 2.606517 0.000034 -15.261730 0.000025 2.206497 0.467209 -15.375813 -0.000001 -7.370666 -0.000000 -0.000000 0.000000 0.000000 0.000006 0.000059 -0.000001 0.000000 -0.000001 -0.000001 -0.000003 0.000015 -0.000001 -0.000002 -0.000000 -0.000001 11.315677 -0.000029 -0.000008 -4.701766 -9.909318 -2.885737 -0.000013 0.000046 -38.200302 0.896235 -0.772867 40.736607 -0.000011 -0.000013 -39.900856 -0.091816 7.102635 3.990054 0.000020 -15.261653 0.000003 -2.134862 -0.362966 -20.308692 0.000003 -7.539977 0.000000 -0.000000 0.000001 -0.000000 0.000030 0.000000 -0.000000 -0.000000 -0.000000 0.000001 -0.000003 0.000063 -0.000004 -0.000000 0.000001 -0.000001 
